HIERARCHY
ROOT Hips
{
	OFFSET -0.001795 -0.223333 0.028219
	CHANNELS 6 Xposition Yposition Zposition Zrotation Yrotation Xrotation 
	JOINT LeftUpLeg
	{
		OFFSET 0.069520 -0.091406 -0.006815
		CHANNELS 3 Zrotation Yrotation Xrotation
		JOINT LeftLeg
		{
			OFFSET 0.034277 -0.375199 -0.004496
			CHANNELS 3 Zrotation Yrotation Xrotation
			JOINT LeftFoot
			{
				OFFSET -0.013596 -0.397961 -0.043693
				CHANNELS 3 Zrotation Yrotation Xrotation
				JOINT LeftToe
				{
					OFFSET 0.026358 -0.055791 0.119288
					CHANNELS 3 Zrotation Yrotation Xrotation
					End Site
					{
						OFFSET 0.000000 0.000000 0.000000
					}
				}
			}
		}
	}
	JOINT RightUpLeg
	{
		OFFSET -0.067670 -0.090522 -0.004320
		CHANNELS 3 Zrotation Yrotation Xrotation
		JOINT RightLeg
		{
			OFFSET -0.038290 -0.382569 -0.008850
			CHANNELS 3 Zrotation Yrotation Xrotation
			JOINT RightFoot
			{
				OFFSET 0.015774 -0.398415 -0.042312
				CHANNELS 3 Zrotation Yrotation Xrotation
				JOINT RightToe
				{
					OFFSET -0.025372 -0.048144 0.123348
					CHANNELS 3 Zrotation Yrotation Xrotation
					End Site
					{
						OFFSET 0.000000 0.000000 0.000000
					}
				}
			}
		}
	}
	JOINT Spine
	{
		OFFSET -0.002533 0.108963 -0.026696
		CHANNELS 3 Zrotation Yrotation Xrotation
		JOINT Spine1
		{
			OFFSET 0.005487 0.135180 0.001092
			CHANNELS 3 Zrotation Yrotation Xrotation
			JOINT Spine2
			{
				OFFSET 0.001457 0.052922 0.025425
				CHANNELS 3 Zrotation Yrotation Xrotation
				JOINT Neck
				{
					OFFSET -0.002778 0.213870 -0.042857
					CHANNELS 3 Zrotation Yrotation Xrotation
					JOINT Head
					{
						OFFSET 0.005152 0.064970 0.051349
						CHANNELS 3 Zrotation Yrotation Xrotation
						End Site
						{
							OFFSET 0.000000 0.000000 0.000000
						}
					}
				}
				JOINT LeftShoulder
				{
					OFFSET 0.078845 0.121749 -0.034090
					CHANNELS 3 Zrotation Yrotation Xrotation
					JOINT LeftArm
					{
						OFFSET 0.090977 0.030469 -0.008868
						CHANNELS 3 Zrotation Yrotation Xrotation
						JOINT LeftForeArm
						{
							OFFSET 0.259612 -0.012772 -0.027456
							CHANNELS 3 Zrotation Yrotation Xrotation
							JOINT LeftHand
							{
								OFFSET 0.249234 0.008986 -0.001171
								CHANNELS 3 Zrotation Yrotation Xrotation
								End Site
								{
									OFFSET 0.000000 0.000000 0.000000
								}
							}
						}
					}
				}
				JOINT RightShoulder
				{
					OFFSET -0.081759 0.118833 -0.038615
					CHANNELS 3 Zrotation Yrotation Xrotation
					JOINT RightArm
					{
						OFFSET -0.096012 0.032551 -0.009143
						CHANNELS 3 Zrotation Yrotation Xrotation
						JOINT RightForeArm
						{
							OFFSET -0.253742 -0.013329 -0.021401
							CHANNELS 3 Zrotation Yrotation Xrotation
							JOINT RightHand
							{
								OFFSET -0.255298 0.007772 -0.005559
								CHANNELS 3 Zrotation Yrotation Xrotation
								End Site
								{
									OFFSET 0.000000 0.000000 0.000000
								}
							}
						}
					}
				}
			}
		}
	}
}
MOTION
Frames: 10
Frame Time: 0.050000
0.000000 0.917657 0.000000 1.302816 -1.599565 3.154580 10.746302 -0.013506 -24.032741 -8.916557 1.402935 8.229598 14.081583 24.773736 27.363740 0.000000 0.000000 0.000000 -3.107650 0.232629 -1.751122 4.127757 -0.374004 8.367059 -3.722703 -8.148335 -3.571964 0.000000 0.000000 0.000000 4.386919 -1.754973 21.944710 -7.831072 2.465476 -23.650677 -0.907835 7.423027 26.236680 11.313857 -3.056087 -31.085714 0.000000 0.000000 0.000000 -21.682116 -13.459360 4.482442 -42.035077 -8.248875 -3.674611 -18.409711 -34.061647 6.798643 0.000000 0.000000 0.000000 25.050412 4.725829 3.660809 49.758341 25.798863 2.857050 16.799893 33.714231 7.085777 0.000000 0.000000 0.000000 
0.009275 0.915606 0.022795 1.427489 -0.920166 4.036369 9.302782 -0.366372 -23.857468 -7.869658 1.098702 6.052181 8.483251 18.270645 18.689286 0.000000 0.000000 0.000000 -3.650819 0.164040 -0.519325 3.865145 -0.348416 7.295138 -3.938902 -8.790271 -3.584039 0.000000 0.000000 0.000000 3.626295 -1.666513 22.393378 -7.113371 2.245626 -24.816856 -1.477477 6.501445 25.564727 12.477164 -3.302798 -33.490897 0.000000 0.000000 0.000000 -21.976697 -12.544923 4.097021 -40.790172 -7.232309 -3.866501 -22.223846 -34.548988 8.119143 0.000000 0.000000 0.000000 27.365259 4.107981 3.155050 47.885368 24.742350 2.185200 19.033544 33.414461 7.589657 0.000000 0.000000 0.000000 
0.021446 0.911261 0.048856 0.696169 -2.719700 3.128365 9.259098 -0.227366 -24.103016 -7.596565 1.335822 11.834855 7.959629 17.199796 15.385808 0.000000 0.000000 0.000000 -4.522765 0.121187 0.826748 4.472886 -0.406040 9.393454 -3.403253 -7.007660 -4.006368 0.000000 0.000000 0.000000 3.128308 -1.514066 23.171480 -6.606220 2.105569 -24.942231 -1.697167 7.741431 26.336853 12.928505 -3.540784 -33.490564 0.000000 0.000000 0.000000 -20.241849 -12.878963 4.291027 -42.039781 -7.937460 -3.886299 -19.689970 -33.129402 6.993149 0.000000 0.000000 0.000000 27.508582 4.075968 3.274302 48.271596 25.958804 2.585757 15.021703 32.269042 6.135674 0.000000 0.000000 0.000000 
0.036396 0.909117 0.077882 0.462231 -3.349883 2.884327 9.231536 -0.187505 -23.244917 -9.004594 1.826820 14.324751 8.135589 17.361274 14.450684 0.000000 0.000000 0.000000 -5.435029 0.196120 0.272855 4.445028 -0.339554 14.641407 -3.280934 -6.800907 -3.597246 0.000000 0.000000 0.000000 2.408153 -1.301952 22.788324 -6.351298 2.069861 -24.052672 -1.335610 6.934142 26.482552 11.466157 -3.026171 -33.065922 0.000000 0.000000 0.000000 -20.640577 -13.374454 4.908656 -41.256931 -7.762710 -3.941640 -19.840602 -34.177213 7.359758 0.000000 0.000000 0.000000 27.576784 4.484923 3.116854 48.188558 24.282668 1.985776 15.233514 31.763456 6.005852 0.000000 0.000000 0.000000 
0.052594 0.909936 0.109546 0.137640 -3.050514 1.843487 8.518475 -0.323848 -21.714202 -9.458000 2.113921 17.284685 8.335838 17.593748 11.276686 0.000000 0.000000 0.000000 -7.038902 0.343811 -2.521861 6.267692 -0.808291 25.043900 -2.959322 -8.206074 2.253225 0.000000 0.000000 0.000000 1.527914 -1.118250 22.731321 -5.475409 1.876376 -23.838085 -1.611544 6.489846 27.530036 11.757038 -3.229266 -33.389142 0.000000 0.000000 0.000000 -20.135828 -14.170305 5.468507 -41.400763 -8.562848 -3.849003 -17.031485 -35.429414 6.783333 0.000000 0.000000 0.000000 29.432637 4.359213 3.085706 47.202472 23.406944 1.306790 12.700050 31.236358 5.194932 0.000000 0.000000 0.000000 
0.067613 0.912763 0.142918 0.655144 -4.365415 0.889704 7.400507 -0.417238 -19.014257 -10.419472 2.577505 18.517565 9.091098 18.677971 9.754062 0.000000 0.000000 0.000000 -8.939607 0.520318 -8.354682 7.160643 -0.956675 39.250313 -2.369903 -9.310839 9.873380 0.000000 0.000000 0.000000 0.557812 -0.842799 22.992589 -5.544063 1.895731 -23.179632 -1.601152 5.765785 27.121260 10.507679 -3.010148 -32.082077 0.000000 0.000000 0.000000 -20.167290 -15.167216 6.440301 -41.362395 -8.745326 -3.871743 -15.561090 -36.516926 6.636887 0.000000 0.000000 0.000000 29.134943 5.243813 3.001542 47.411033 21.514419 0.847116 12.976765 31.148842 5.119532 0.000000 0.000000 0.000000 
0.080035 0.915678 0.177843 0.388206 -3.947435 -0.452466 6.163812 -0.519772 -15.110038 -9.718205 2.335345 18.431364 8.996701 18.551405 7.338291 0.000000 0.000000 0.000000 -9.939746 0.548903 -13.772640 8.783208 -1.949055 51.603938 -2.590148 -11.342010 17.352277 0.000000 0.000000 0.000000 0.413476 -0.874035 24.471495 -5.023847 1.778042 -23.394733 -2.454888 4.493130 26.542764 11.351633 -3.761388 -31.285905 0.000000 0.000000 0.000000 -19.784850 -14.854259 6.488072 -40.798960 -9.467602 -3.644611 -15.526010 -36.783991 6.729947 0.000000 0.000000 0.000000 29.585796 4.318923 1.922069 48.095346 20.013502 0.488583 13.117461 29.527969 4.771923 0.000000 0.000000 0.000000 
0.089000 0.917810 0.213967 -0.266123 -3.572726 -1.543447 5.500797 -0.435967 -10.495307 -8.789760 1.940653 16.898043 8.874371 18.352703 4.743095 0.000000 0.000000 0.000000 -10.108674 0.576490 -17.722885 10.629453 -3.287636 54.077359 -5.386892 -16.121099 20.030975 0.000000 0.000000 0.000000 1.098590 -1.070350 24.889218 -4.860510 1.761170 -22.615438 -3.439956 3.242658 25.637114 10.482973 -3.485465 -31.003431 0.000000 0.000000 0.000000 -19.047815 -14.739911 6.584226 -40.118018 -9.119737 -3.709216 -15.520112 -37.961035 7.004882 0.000000 0.000000 0.000000 29.236932 3.966797 1.233741 49.078343 17.696330 -0.152393 13.244351 28.924975 4.611488 0.000000 0.000000 0.000000 
0.094629 0.919851 0.250668 -0.902537 -3.185085 -2.378661 5.173441 -0.288073 -6.434837 -7.903614 1.617380 15.832298 8.684822 18.006145 3.170810 0.000000 0.000000 0.000000 -9.148409 0.736807 -20.205381 12.330412 -3.890659 44.117816 -12.388243 -26.525086 19.531078 0.000000 0.000000 0.000000 1.489730 -1.208948 25.448859 -4.171243 1.586921 -23.199540 -4.218480 2.208418 26.185508 10.643107 -3.786776 -30.797571 0.000000 0.000000 0.000000 -19.148608 -14.028219 6.428076 -39.104219 -9.713886 -3.576922 -15.714578 -39.130649 7.364975 0.000000 0.000000 0.000000 29.515591 3.981292 0.923862 48.698744 15.977635 -0.825399 13.781815 28.252939 4.561968 0.000000 0.000000 0.000000 
0.097580 0.921227 0.287674 -1.203026 -3.499353 -2.709908 4.488543 -0.125403 -2.589911 -6.740295 1.264579 14.257904 8.799747 18.250027 2.453762 0.000000 0.000000 0.000000 -7.371538 1.087004 -21.712792 12.175465 -2.743047 25.976843 -23.217327 -36.665866 34.497055 0.000000 0.000000 0.000000 1.670645 -1.238110 25.569285 -4.129766 1.569612 -23.499925 -3.836329 1.668794 26.074977 10.224573 -3.774750 -30.129013 0.000000 0.000000 0.000000 -18.505412 -13.357245 6.201009 -39.560928 -9.711595 -3.655523 -16.293155 -40.112020 7.883455 0.000000 0.000000 0.000000 28.582709 3.030826 0.050542 49.500930 13.958949 -1.522129 15.298343 28.953646 5.051465 0.000000 0.000000 0.000000 
